<svg width="26" height="25" viewBox="0 0 26 25" fill="none" xmlns="http://www.w3.org/2000/svg">
<g clip-path="url(#clip0_14_105)">
<path d="M9.00293 1.20117C8.62695 0.292971 7.63574 -0.190427 6.68848 0.0683617L2.3916 1.24024C1.54199 1.47461 0.951172 2.2461 0.951172 3.125C0.951172 15.2051 10.7461 25 22.8262 25C23.7051 25 24.4766 24.4092 24.7109 23.5596L25.8828 19.2627C26.1416 18.3154 25.6582 17.3242 24.75 16.9482L20.0625 14.9951C19.2666 14.6631 18.3437 14.8926 17.8018 15.5615L15.8291 17.9688C12.3916 16.3428 9.6084 13.5596 7.98242 10.1221L10.3896 8.1543C11.0586 7.60742 11.2881 6.68946 10.9561 5.89356L9.00293 1.20606V1.20117Z" fill="white"/>
</g>
<defs>
<clipPath id="clip0_14_105">
<rect width="25" height="25" fill="white" transform="translate(0.951172)"/>
</clipPath>
</defs>
</svg>
