<svg width="26" height="25" viewBox="0 0 26 25" fill="none" xmlns="http://www.w3.org/2000/svg">
<path d="M13.4509 6.09032C9.90297 6.09032 7.04121 8.95208 7.04121 12.5C7.04121 16.0479 9.90297 18.9097 13.4509 18.9097C16.9988 18.9097 19.8606 16.0479 19.8606 12.5C19.8606 8.95208 16.9988 6.09032 13.4509 6.09032ZM13.4509 16.6671C11.1581 16.6671 9.28376 14.7983 9.28376 12.5C9.28376 10.2017 11.1526 8.33287 13.4509 8.33287C15.7492 8.33287 17.618 10.2017 17.618 12.5C17.618 14.7983 15.7437 16.6671 13.4509 16.6671V16.6671ZM21.6178 5.82813C21.6178 6.65932 20.9484 7.32316 20.1228 7.32316C19.2916 7.32316 18.6277 6.65374 18.6277 5.82813C18.6277 5.00251 19.2972 4.33309 20.1228 4.33309C20.9484 4.33309 21.6178 5.00251 21.6178 5.82813ZM25.863 7.34548C25.7682 5.3428 25.3108 3.56884 23.8436 2.10727C22.3821 0.64571 20.6081 0.188274 18.6054 0.0878612C16.5414 -0.0292871 10.3548 -0.0292871 8.29079 0.0878612C6.29369 0.182696 4.51973 0.640132 3.05259 2.1017C1.58544 3.56326 1.13359 5.33722 1.03317 7.3399C0.916025 9.40394 0.916025 15.5905 1.03317 17.6545C1.12801 19.6572 1.58544 21.4312 3.05259 22.8927C4.51973 24.3543 6.28811 24.8117 8.29079 24.9121C10.3548 25.0293 16.5414 25.0293 18.6054 24.9121C20.6081 24.8173 22.3821 24.3599 23.8436 22.8927C25.3052 21.4312 25.7626 19.6572 25.863 17.6545C25.9802 15.5905 25.9802 9.40952 25.863 7.34548V7.34548ZM23.1965 19.8692C22.7614 20.9626 21.919 21.8049 20.8201 22.2456C19.1744 22.8983 15.2695 22.7477 13.4509 22.7477C11.6323 22.7477 7.72178 22.8927 6.08171 22.2456C4.98832 21.8105 4.14597 20.9681 3.70527 19.8692C3.05259 18.2235 3.20321 14.3186 3.20321 12.5C3.20321 10.6814 3.05817 6.77089 3.70527 5.13082C4.14039 4.03743 4.98274 3.19508 6.08171 2.75438C7.72736 2.1017 11.6323 2.25231 13.4509 2.25231C15.2695 2.25231 19.18 2.10727 20.8201 2.75438C21.9135 3.1895 22.7558 4.03185 23.1965 5.13082C23.8492 6.77647 23.6986 10.6814 23.6986 12.5C23.6986 14.3186 23.8492 18.2291 23.1965 19.8692Z" fill="white"/>
</svg>
