<svg width="32" height="25" viewBox="0 0 32 25" fill="none" xmlns="http://www.w3.org/2000/svg">
<path d="M28.5684 6.23045C28.5879 6.50387 28.5879 6.77735 28.5879 7.05078C28.5879 15.3906 22.2403 25 10.6387 25C7.06444 25 3.74415 23.9648 0.951172 22.168C1.459 22.2266 1.94724 22.2461 2.47461 22.2461C5.42378 22.2461 8.13866 21.25 10.3066 19.5508C7.5332 19.4922 5.20897 17.6758 4.40818 15.1758C4.79883 15.2343 5.18943 15.2734 5.59963 15.2734C6.16602 15.2734 6.73246 15.1953 7.25977 15.0586C4.36916 14.4726 2.20112 11.9336 2.20112 8.86718V8.78908C3.04093 9.25783 4.01758 9.5508 5.05266 9.58981C3.35344 8.45698 2.2402 6.52341 2.2402 4.33589C2.2402 3.16404 2.55264 2.08982 3.09955 1.15231C6.20503 4.98044 10.873 7.48039 16.1074 7.75388C16.0097 7.28513 15.9511 6.79689 15.9511 6.3086C15.9511 2.832 18.7636 0 22.2597 0C24.0761 0 25.7167 0.761717 26.8691 1.99219C28.2948 1.71876 29.662 1.19139 30.873 0.468753C30.4042 1.93363 29.4081 3.1641 28.0995 3.9453C29.3691 3.80864 30.5996 3.457 31.7323 2.96877C30.8731 4.21872 29.7988 5.33196 28.5684 6.23045V6.23045Z" fill="white"/>
</svg>
